<?xml version="1.0" ?><!DOCTYPE svg  PUBLIC '-//W3C//DTD SVG 1.1//EN'  'http://www.w3.org/Graphics/SVG/1.1/DTD/svg11.dtd'><svg enable-background="new 0 0 512 512" id="Layer_1" version="1.1" viewBox="0 0 512 512" xml:space="preserve" xmlns="http://www.w3.org/2000/svg" xmlns:xlink="http://www.w3.org/1999/xlink"><g><path d="M479,255.5c0.2,9.8-0.4,19.6-2,29.3c-0.6,3.8,0.1,7.1,2.1,10.5c11.1,19.2,17.1,39.9,18,62.1   c1.7,42.2-12.6,78.1-42.8,107.3c-24.7,23.9-54.7,36.6-89.2,38.4c-29.2,1.5-56-5.6-80.8-20.8c-4.2-2.6-8.5-1.5-12.6-1.1   c-15,1.5-30,1.2-44.9-0.5c-28-3.1-54.8-11-79.7-24.4c-57-30.8-95.1-77.2-113.3-139.5c-6.5-22.4-9.2-45.3-8.6-68.5   c0.2-8.6,0.8-17.3,2.5-25.8c0.4-2.3-0.1-4.2-1.1-6.2c-11.4-21.7-16.5-44.9-15.5-69.3c1.3-31.6,12.1-59.8,32.5-84.1   c22.7-27,51.7-43.2,86.4-48.5c29.4-4.4,57.7,0.2,84.2,14.1c2.5,1.3,4.9,2.1,8,1.6c28.2-3.8,56-2.1,83.7,4.5   c30.9,7.4,58.9,20.9,84.1,40.2c27.9,21.4,49.9,47.9,65.6,79.5c12.7,25.6,20.4,52.6,22.7,81.2C478.7,242.3,478.8,248.9,479,255.5z    M459,254.1c0.5-9.4-0.6-19.7-2.2-29.8c-8.1-50.2-30.8-92.6-69.6-125.6c-47.9-40.8-103.4-56.5-165.8-47.8   c-4.1,0.6-7.9,0.4-11.8-1.9c-16.6-9.8-34.8-15-54.1-15.7c-22.8-0.9-44.4,3.9-64.1,15.6C53.5,71.4,33.2,105,31.2,149   c-1,22.2,4.7,43.2,15.6,62.6c1.2,2.1,2.4,4.2,1.9,7c-4,22.8-4.5,45.6-0.8,68.5c8.4,51.8,32.6,94.9,73.2,127.9   c46,37.5,99,52.4,158.1,45.1c4.6-0.6,8.5,0.2,12.6,3c29.1,19.5,61.1,24.8,94.9,16.7c48.2-11.4,85.5-52.9,90.2-104.5   c2.5-27.2-3.4-52.6-18.4-75.7c-2.1-3.3-2.9-6.5-2.3-10.4C458.1,278,459.2,266.6,459,254.1z" fill="#A7A7A7"/><path d="M249.9,383c-21.5-0.1-42.5-2.8-62.2-12c-13.9-6.5-26.2-15.2-34.7-28.4c-5.4-8.4-7.2-17.6-5.9-27.2   c1.2-8.5,6.4-14.2,14.4-17c9.2-3.2,17.8-1.5,25.2,4.9c6.2,5.4,11,12,16.1,18.4c8.7,10.9,20,16.8,33.5,18.9   c14.8,2.3,29.3,1.9,42.6-6c9.5-5.6,16.3-13.2,16.3-25.1c0-11.3-4.9-19.2-15.4-23.4c-13.2-5.3-27.2-7.4-40.8-11.2   c-16.6-4.6-33.8-7.4-49.8-14.2c-22.3-9.4-38-24.7-41.5-49.6c-4.3-31,5.5-56.6,34.2-73.1c15.4-8.9,32.2-12.8,49.9-14.3   c25.1-2.2,49.1,1.6,71.9,12.4c10.8,5.1,20.7,11.4,28.6,20.5c5.8,6.6,9.4,14.1,9.7,23c0.4,12.6-8,21.9-20.5,23.4   c-10.5,1.3-18.9-2.2-25.6-10.2c-10.8-12.9-23.2-23.6-40.9-25.3c-11.6-1.1-23.3-1.8-34.5,2.6c-9.4,3.7-16.4,9.8-18.7,20.4   c-2,9.1,1.4,15.6,8.5,20.7c10.4,7.5,22.8,9.8,34.9,12.8c19.2,4.7,38.8,7.6,57.6,14.1c18.4,6.3,34.2,16.4,42.5,34.7   c15.2,33.8,7.4,79.1-36.5,99.1C290.3,380.2,273.8,383,249.9,383z" fill="#A7A7A7"/></g></svg>