<?xml version="1.0" ?><!DOCTYPE svg  PUBLIC '-//W3C//DTD SVG 1.1//EN'  'http://www.w3.org/Graphics/SVG/1.1/DTD/svg11.dtd'><svg enable-background="new 0 0 512 512" id="Layer_1" version="1.1" viewBox="0 0 512 512" xml:space="preserve" xmlns="http://www.w3.org/2000/svg" xmlns:xlink="http://www.w3.org/1999/xlink"><g><path d="M27.2,258.9c-0.2-11.4,0.5-23.8,2.5-36.2c0.4-2.7-0.4-4.8-1.5-7.1C-6.9,146,20.8,61.8,90.8,27.5   C132.5,7.1,174.7,8,216.4,28.6c2.6,1.3,4.9,2,8,1.7c63.8-7.5,121.4,7.8,171.7,48c44.9,35.9,72.1,82.6,81.9,139.3   c3.9,22.3,4.4,44.7,1.2,67.2c-0.5,3.8,0,7,2,10.4c47.7,83.3-1.6,188.9-96.2,206c-34.9,6.3-67.5,0-97.8-18.3c-2.5-1.5-4.8-2.3-7.9-2   c-53.9,5.3-104.2-5.9-149.4-36C76,409,43,358.9,30.9,295.3C28.7,283.7,27.8,271.9,27.2,258.9z M461.1,256.3   c0.1-17.3-1.7-33.5-5.6-49.4c-26-105.5-125.2-172-232.9-156.1c-3.9,0.6-7.3,0.1-10.9-1.9c-24.9-14.2-51.6-18.8-80-14   C76.7,44,34.1,93.3,33.1,149c-0.4,22.3,4.7,43.2,15.7,62.7c1.5,2.7,2.1,5.2,1.5,8.5c-2,11-3.1,22.1-3.1,33.3   c0.1,53.9,17.4,101.6,54.2,141.1c48.6,52.2,109,73.8,179.9,65.7c4.5-0.5,8.2,0.2,12.1,2.8c31.3,20.7,65.3,26,101.2,15.2   c75.5-22.7,108.2-110.2,66.6-177.4c-2.3-3.6-3.9-7-3-11.6C460.3,278.1,461.2,266.8,461.1,256.3z" fill="#03AFEF"/><path d="M251.6,382.9c-24.4-0.1-48.1-3.5-69.7-15.9c-9.6-5.5-18.3-12.3-24.8-21.3c-5.4-7.5-8.4-15.8-8.4-25.1   c0.1-18.4,18.1-29.3,34.6-20.9c4.6,2.3,8.1,5.8,11.3,9.7c3.3,4,6.8,7.8,9.9,11.9c13.3,17.2,31.9,21.2,52.2,20.3   c10.3-0.4,20-3.2,28.4-9.6c9.4-7.2,14-16.5,11.8-28.3c-2-11-10.2-16.6-20.1-19.4c-18.3-5.1-36.7-9.5-55.1-14.2   c-12.4-3.2-24.7-6.5-36.4-11.9c-48.7-22.5-45.8-89.5-10.1-114.4c15.7-11,33-17,51.8-19.4c30.4-3.8,59.4,0.5,86.4,15.7   c7.9,4.4,15.2,9.7,21.1,16.6c4.3,5,7.4,10.6,8.8,17.1c2,9.7,0.7,18.3-7.9,24.5c-8.9,6.4-21,6.9-29.6,1.4c-3.4-2.2-6.1-5.1-8.9-8   c-8.7-9.3-17.1-18.7-30.2-22c-13.8-3.5-27.7-4.4-41.4-0.4c-10.4,3-18.4,9.2-21.2,20.4c-2.3,9,0.7,16,8,21.4   c8,5.8,17.2,8.7,26.6,10.9c18.9,4.5,38,8.4,56.9,13.2c16.5,4.2,31.8,11.3,43.2,24.5c27.6,32,18.1,84.7-19.3,107.6   c-17.7,10.8-37.4,14.4-57.7,15.6C258.3,383.1,254.9,382.9,251.6,382.9z" fill="#01AFEF"/></g></svg>